# Blender v3.4.1 OBJ File: 'bloxiann.blend'
# www.blender.org
mtllib bloxiann.mtl
o Cube
v 0.400000 -1.000000 -0.800000
v 0.400000 -1.000000 0.800000
v -0.400000 -1.000000 -0.800000
v -0.400000 -1.000000 0.800000
v 0.345857 0.440000 -0.451714
v 0.400000 0.343088 -0.576152
v 0.384142 0.411615 -0.533015
v 0.345857 0.440000 0.451714
v 0.400000 0.343088 0.576152
v 0.384142 0.411615 0.533015
v -0.345857 0.440000 -0.451714
v -0.400000 0.343088 -0.576152
v -0.384142 0.411615 -0.533015
v -0.345857 0.440000 0.451714
v -0.400000 0.343088 0.576152
v -0.384142 0.411615 0.533015
vt 0.375000 0.750000
vt 0.608175 0.750000
vt 0.608175 1.000000
vt 0.375000 1.000000
vt 0.375000 0.000000
vt 0.608175 0.000000
vt 0.608175 0.250000
vt 0.375000 0.250000
vt 0.125000 0.500000
vt 0.375000 0.500000
vt 0.125000 0.750000
vt 0.641920 0.524171
vt 0.858080 0.524171
vt 0.858080 0.725829
vt 0.641920 0.725829
vt 0.608175 0.500000
vt 0.870044 0.750000
vt 0.629956 0.750000
vt 0.625000 0.754956
vt 0.625000 0.995044
vt 0.625000 0.743977
vt 0.625000 0.506024
vt 0.875000 0.506024
vt 0.875000 0.743977
vt 0.625000 0.006024
vt 0.625000 0.243977
vt 0.629956 0.500000
vt 0.870044 0.500000
vt 0.625000 0.254956
vt 0.625000 0.495044
vn 0.0000 0.1644 0.9864
vn 0.0000 0.3432 0.9393
vn -1.0000 0.0000 0.0000
vn -0.9965 0.0840 0.0000
vn 0.0000 -1.0000 0.0000
vn 0.0000 0.9824 -0.1868
vn 0.0000 0.9824 0.1868
vn 1.0000 0.0000 0.0000
vn 0.9965 0.0840 0.0000
vn 0.0000 0.9441 0.3296
vn 0.0000 0.5327 0.8463
vn 0.5956 0.8033 0.0000
vn 0.9743 0.2255 0.0000
vn -0.5956 0.8033 0.0000
vn -0.9743 0.2255 0.0000
vn 0.0000 0.9441 -0.3296
vn 0.0000 0.5327 -0.8463
vn 0.0000 0.3432 -0.9393
vn 0.0000 0.1644 -0.9864
usemtl Material
s 1
f 2/1/1 9/2/2 15/3/2 4/4/1
f 4/5/3 15/6/4 12/7/4 3/8/3
f 3/9/5 1/10/5 2/1/5 4/11/5
f 5/12/6 11/13/6 14/14/7 8/15/7
f 1/10/8 6/16/9 9/2/9 2/1/8
f 8/15/7 14/14/7 16/17/10 10/18/10
f 10/19/11 16/20/11 15/3/2 9/2/2
f 5/12/12 8/15/12 10/21/12 7/22/12
f 7/22/13 10/21/13 9/2/9 6/16/9
f 14/14/14 11/13/14 13/23/14 16/24/14
f 16/25/15 13/26/15 12/7/4 15/6/4
f 11/13/6 5/12/6 7/27/16 13/28/16
f 13/29/17 7/30/17 6/16/18 12/7/18
f 3/8/19 12/7/18 6/16/18 1/10/19
o Cube.001
v -0.400000 -1.000000 -0.829412
v -0.400000 -0.600000 -0.829412
v -0.400000 -1.000000 -1.570588
v 0.400000 -1.000000 -0.829412
v 0.400000 -0.600000 -0.829412
v 0.400000 -1.000000 -1.570588
v -0.400000 -0.600000 -1.192839
v -0.400000 -0.799868 -1.570588
v 0.400000 -0.799868 -1.570588
v 0.400000 -0.600000 -1.192839
vt 0.375000 0.250000
vt 0.500083 0.250000
vt 0.500083 0.500000
vt 0.375000 0.500000
vt 0.625000 0.627416
vt 0.625000 0.750000
vt 0.375000 0.750000
vt 0.625000 1.000000
vt 0.375000 1.000000
vt 0.125000 0.500000
vt 0.125000 0.750000
vt 0.375000 0.000000
vt 0.625000 0.000000
vt 0.625000 0.122584
vt 0.625000 0.250000
vt 0.625000 0.500000
vt 0.875000 0.627416
vt 0.875000 0.750000
vn 0.0000 0.0000 -1.0000
vn 1.0000 0.0000 0.0000
vn 0.0000 0.0000 1.0000
vn 0.0000 -1.0000 0.0000
vn -1.0000 0.0000 0.0000
vn 0.0000 0.8839 -0.4677
vn 0.0000 1.0000 0.0000
usemtl None
s off
f 19/31/20 24/32/20 25/33/20 22/34/20
f 22/34/21 25/33/21 26/35/21 21/36/21 20/37/21
f 20/37/22 21/36/22 18/38/22 17/39/22
f 19/40/23 22/34/23 20/37/23 17/41/23
f 17/42/24 18/43/24 23/44/24 24/32/24 19/31/24
f 23/45/25 26/46/25 25/33/25 24/32/25
f 26/35/26 23/47/26 18/48/26 21/36/26
o Cube.003
v -0.400000 -3.000000 0.900000
v -0.400000 -2.600000 0.900000
v 0.600000 -3.000000 0.900000
v -0.400000 -3.000000 0.100000
v -0.400000 -2.600000 0.100000
v 0.600000 -3.000000 0.100000
v 0.090338 -2.600000 0.900000
v 0.600000 -2.799868 0.900000
v 0.600000 -2.799868 0.100000
v 0.090338 -2.600000 0.100000
vt 0.375000 0.250000
vt 0.375000 0.500000
vt 0.500083 0.500000
vt 0.500083 0.250000
vt 0.375000 0.750000
vt 0.625000 0.750000
vt 0.625000 0.627416
vt 0.375000 1.000000
vt 0.625000 1.000000
vt 0.125000 0.500000
vt 0.125000 0.750000
vt 0.375000 0.000000
vt 0.625000 0.122584
vt 0.625000 0.000000
vt 0.625000 0.250000
vt 0.625000 0.500000
vt 0.875000 0.750000
vt 0.875000 0.627416
vn 1.0000 0.0000 0.0000
vn 0.0000 0.0000 -1.0000
vn -1.0000 0.0000 -0.0000
vn 0.0000 -1.0000 0.0000
vn -0.0000 0.0000 1.0000
vn 0.3651 0.9310 0.0000
vn 0.0000 1.0000 0.0000
usemtl None
s off
f 29/49/27 32/50/27 35/51/27 34/52/27
f 32/50/28 30/53/28 31/54/28 36/55/28 35/51/28
f 30/53/29 27/56/29 28/57/29 31/54/29
f 29/58/30 27/59/30 30/53/30 32/50/30
f 27/60/31 29/49/31 34/52/31 33/61/31 28/62/31
f 33/63/32 34/52/32 35/51/32 36/64/32
f 36/55/33 31/54/33 28/65/33 33/66/33
o Cube.004
v -0.400000 -3.000000 -0.095000
v -0.400000 -2.600000 -0.095000
v 0.600000 -3.000000 -0.095000
v -0.400000 -3.000000 -0.905000
v -0.400000 -2.600000 -0.905000
v 0.600000 -3.000000 -0.905000
v 0.090338 -2.600000 -0.095000
v 0.600000 -2.799868 -0.095000
v 0.600000 -2.799868 -0.905000
v 0.090338 -2.600000 -0.905000
vt 0.375000 0.250000
vt 0.375000 0.500000
vt 0.500083 0.500000
vt 0.500083 0.250000
vt 0.375000 0.750000
vt 0.625000 0.750000
vt 0.625000 0.627416
vt 0.375000 1.000000
vt 0.625000 1.000000
vt 0.125000 0.500000
vt 0.125000 0.750000
vt 0.375000 0.000000
vt 0.625000 0.122584
vt 0.625000 0.000000
vt 0.625000 0.250000
vt 0.625000 0.500000
vt 0.875000 0.750000
vt 0.875000 0.627416
vn 1.0000 0.0000 0.0000
vn 0.0000 0.0000 -1.0000
vn -1.0000 0.0000 -0.0000
vn 0.0000 -1.0000 0.0000
vn -0.0000 -0.0000 1.0000
vn 0.3651 0.9310 0.0000
vn 0.0000 1.0000 0.0000
usemtl None
s off
f 39/67/34 42/68/34 45/69/34 44/70/34
f 42/68/35 40/71/35 41/72/35 46/73/35 45/69/35
f 40/71/36 37/74/36 38/75/36 41/72/36
f 39/76/37 37/77/37 40/71/37 42/68/37
f 37/78/38 39/67/38 44/70/38 43/79/38 38/80/38
f 43/81/39 44/70/39 45/69/39 46/82/39
f 46/73/40 41/72/40 38/83/40 43/84/40
o Cylinder
v -0.000000 0.440000 -0.331571
v 0.000000 0.595608 -0.500000
v -0.000000 0.485577 -0.450668
v 0.000000 1.440000 -0.331571
v 0.000000 1.284392 -0.500000
v 0.000000 1.394423 -0.450668
v 0.234456 0.440000 -0.234456
v 0.353553 0.595608 -0.353553
v 0.318671 0.485577 -0.318671
v 0.234456 1.440000 -0.234456
v 0.353553 1.284392 -0.353553
v 0.318671 1.394423 -0.318671
v 0.331571 0.440000 -0.000000
v 0.500000 0.595608 0.000000
v 0.450668 0.485577 -0.000000
v 0.331571 1.440000 0.000000
v 0.500000 1.284392 0.000000
v 0.450668 1.394423 0.000000
v 0.234456 0.440000 0.234456
v 0.353553 0.595608 0.353553
v 0.318671 0.485577 0.318671
v 0.234456 1.440000 0.234456
v 0.353553 1.284392 0.353553
v 0.318671 1.394423 0.318671
v 0.000000 0.440000 0.331571
v 0.000000 0.595608 0.500000
v 0.000000 0.485577 0.450668
v -0.000000 1.440000 0.331571
v 0.000000 1.284392 0.500000
v -0.000000 1.394423 0.450668
v -0.234456 0.440000 0.234456
v -0.353553 0.595608 0.353553
v -0.318671 0.485577 0.318671
v -0.234456 1.440000 0.234456
v -0.353553 1.284392 0.353553
v -0.318671 1.394423 0.318671
v -0.331571 0.440000 0.000000
v -0.500000 0.595608 0.000000
v -0.450668 0.485577 0.000000
v -0.331571 1.440000 -0.000000
v -0.500000 1.284392 0.000000
v -0.450668 1.394423 -0.000000
v -0.234456 0.440000 -0.234456
v -0.353553 0.595608 -0.353553
v -0.318671 0.485577 -0.318671
v -0.234456 1.440000 -0.234456
v -0.353553 1.284392 -0.353553
v -0.318671 1.394423 -0.318671
vt 0.125000 0.577804
vt 0.125000 0.922196
vt 0.000000 0.922196
vt 0.000000 0.577804
vt 0.750000 0.577804
vt 0.750000 0.922196
vt 0.625000 0.922196
vt 0.625000 0.577804
vt 0.500000 0.922196
vt 0.500000 0.577804
vt 0.375000 0.922196
vt 0.375000 0.577804
vt 0.250000 0.922196
vt 0.250000 0.577804
vt 0.875000 0.577804
vt 0.875000 0.922196
vt 0.362539 0.362539
vt 0.250000 0.409154
vt 0.137461 0.362539
vt 0.090846 0.250000
vt 0.137461 0.137461
vt 0.250000 0.090846
vt 0.362539 0.137461
vt 0.409154 0.250000
vt 1.000000 0.577804
vt 1.000000 0.922196
vt 0.881166 0.500000
vt 0.993834 0.500000
vt 0.758372 0.486532
vt 0.911334 0.423173
vt 0.862539 0.362539
vt 0.750000 0.409154
vt 0.993834 1.000000
vt 0.881166 1.000000
vt 0.411334 0.423173
vt 0.258372 0.486532
vt 0.756166 0.500000
vt 0.868834 0.500000
vt 0.923173 0.411334
vt 0.986532 0.258372
vt 0.909154 0.250000
vt 0.868833 1.000000
vt 0.756166 1.000000
vt 0.486532 0.258372
vt 0.423173 0.411334
vt 0.631166 0.500000
vt 0.743833 0.500000
vt 0.986532 0.241628
vt 0.923173 0.088666
vt 0.862539 0.137461
vt 0.743833 1.000000
vt 0.631166 1.000000
vt 0.423173 0.088666
vt 0.486532 0.241628
vt 0.506166 0.500000
vt 0.618834 0.500000
vt 0.911334 0.076827
vt 0.758372 0.013468
vt 0.750000 0.090846
vt 0.618833 1.000000
vt 0.506166 1.000000
vt 0.258372 0.013468
vt 0.411334 0.076827
vt 0.381166 0.500000
vt 0.493834 0.500000
vt 0.741628 0.013468
vt 0.588666 0.076827
vt 0.637461 0.137461
vt 0.493834 1.000000
vt 0.381166 1.000000
vt 0.088666 0.076827
vt 0.241628 0.013468
vt 0.256166 0.500000
vt 0.368834 0.500000
vt 0.576827 0.088666
vt 0.513468 0.241628
vt 0.590846 0.250000
vt 0.368834 1.000000
vt 0.256166 1.000000
vt 0.013468 0.241628
vt 0.076827 0.088666
vt 0.131166 0.500000
vt 0.243834 0.500000
vt 0.513468 0.258372
vt 0.576827 0.411334
vt 0.637461 0.362539
vt 0.243834 1.000000
vt 0.131166 1.000000
vt 0.076827 0.411334
vt 0.013468 0.258372
vt 0.006166 0.500000
vt 0.118834 0.500000
vt 0.588666 0.423173
vt 0.741628 0.486532
vt 0.118834 1.000000
vt 0.006166 1.000000
vt 0.241628 0.486532
vt 0.088666 0.423173
vn -0.6929 -0.1994 -0.6929
vn -0.6929 0.1994 -0.6929
vn 0.0000 0.1994 -0.9799
vn 0.0000 -0.1994 -0.9799
vn 0.9799 -0.1994 0.0000
vn 0.9799 0.1994 0.0000
vn 0.6929 0.1994 0.6929
vn 0.6929 -0.1994 0.6929
vn 0.0000 0.1994 0.9799
vn 0.0000 -0.1994 0.9799
vn -0.6929 0.1994 0.6929
vn -0.6929 -0.1994 0.6929
vn -0.9799 0.1994 0.0000
vn -0.9799 -0.1994 0.0000
vn 0.6929 -0.1994 -0.6929
vn 0.6929 0.1994 -0.6929
vn 0.1590 0.9744 -0.1590
vn 0.0000 0.9744 -0.2248
vn -0.1590 0.9744 -0.1590
vn -0.2248 0.9744 -0.0000
vn -0.1590 0.9744 0.1590
vn 0.0000 0.9744 0.2248
vn 0.1590 0.9744 0.1590
vn 0.2248 0.9744 0.0000
vn 0.5169 -0.6824 -0.5169
vn 0.0000 -0.6824 -0.7310
vn 0.1590 -0.9744 -0.1590
vn -0.0000 -0.9744 -0.2248
vn -0.0000 0.6824 -0.7310
vn 0.5169 0.6824 -0.5169
vn 0.7310 -0.6824 -0.0000
vn 0.2248 -0.9744 -0.0000
vn 0.7310 0.6824 0.0000
vn 0.5169 -0.6824 0.5169
vn 0.1590 -0.9744 0.1590
vn 0.5169 0.6824 0.5169
vn 0.0000 -0.6824 0.7310
vn 0.0000 -0.9744 0.2248
vn 0.0000 0.6824 0.7310
vn -0.5169 -0.6824 0.5169
vn -0.1590 -0.9744 0.1590
vn -0.5169 0.6824 0.5169
vn -0.7310 -0.6824 0.0000
vn -0.2248 -0.9744 0.0000
vn -0.7310 0.6824 -0.0000
vn -0.5169 -0.6824 -0.5169
vn -0.1590 -0.9744 -0.1590
vn -0.5169 0.6824 -0.5169
usemtl None
s 1
f 90/85/41 93/86/42 51/87/43 48/88/44
f 60/89/45 63/90/46 69/91/47 66/92/48
f 66/92/48 69/91/47 75/93/49 72/94/50
f 72/94/50 75/93/49 81/95/51 78/96/52
f 78/96/52 81/95/51 87/97/53 84/98/54
f 84/98/54 87/97/53 93/86/42 90/85/41
f 54/99/55 57/100/56 63/90/46 60/89/45
f 56/101/57 50/102/58 92/103/59 86/104/60 80/105/61 74/106/62 68/107/63 62/108/64
f 48/109/44 51/110/43 57/100/56 54/99/55
f 48/109/44 54/99/55 55/111/65 49/112/66
f 49/113/66 55/114/65 53/115/67 47/116/68
f 57/100/56 51/110/43 52/117/69 58/118/70
f 58/119/70 52/120/69 50/102/58 56/101/57
f 54/99/55 60/89/45 61/121/71 55/122/65
f 55/123/65 61/124/71 59/125/72 53/115/67
f 63/90/46 57/100/56 58/126/70 64/127/73
f 64/128/73 58/129/70 56/101/57 62/108/64
f 60/89/45 66/92/48 67/130/74 61/131/71
f 61/132/71 67/133/74 65/134/75 59/125/72
f 69/91/47 63/90/46 64/135/73 70/136/76
f 70/137/76 64/138/73 62/108/64 68/107/63
f 66/92/48 72/94/50 73/139/77 67/140/74
f 67/141/74 73/142/77 71/143/78 65/134/75
f 75/93/49 69/91/47 70/144/76 76/145/79
f 76/146/79 70/147/76 68/107/63 74/106/62
f 72/94/50 78/96/52 79/148/80 73/149/77
f 73/150/77 79/151/80 77/152/81 71/143/78
f 81/95/51 75/93/49 76/153/79 82/154/82
f 82/155/82 76/156/79 74/106/62 80/105/61
f 78/96/52 84/98/54 85/157/83 79/158/80
f 79/159/80 85/160/83 83/161/84 77/152/81
f 87/97/53 81/95/51 82/162/82 88/163/85
f 88/164/85 82/165/82 80/105/61 86/104/60
f 84/98/54 90/85/41 91/166/86 85/167/83
f 85/168/83 91/169/86 89/170/87 83/161/84
f 93/86/42 87/97/53 88/171/85 94/172/88
f 94/173/88 88/174/85 86/104/60 92/103/59
f 90/85/41 48/88/44 49/175/66 91/176/86
f 91/177/86 49/178/66 47/116/68 89/170/87
f 51/87/43 93/86/42 94/179/88 52/180/69
f 52/181/69 94/182/88 92/103/59 50/102/58
f 47/116/68 53/115/67 59/125/72 65/134/75 71/143/78 77/152/81 83/161/84 89/170/87
o Cube.002_Cube.006
v -0.400000 -1.000000 0.829412
v -0.400000 -0.600000 0.829412
v -0.400000 -1.000000 1.570588
v 0.400000 -1.000000 0.829412
v 0.400000 -0.600000 0.829412
v 0.400000 -1.000000 1.570588
v -0.400000 -0.600000 1.192839
v -0.400000 -0.799868 1.570588
v 0.400000 -0.799868 1.570588
v 0.400000 -0.600000 1.192839
vt 0.375000 0.250000
vt 0.375000 0.500000
vt 0.500083 0.500000
vt 0.500083 0.250000
vt 0.375000 0.750000
vt 0.625000 0.750000
vt 0.625000 0.627416
vt 0.375000 1.000000
vt 0.625000 1.000000
vt 0.125000 0.500000
vt 0.125000 0.750000
vt 0.375000 0.000000
vt 0.625000 0.122584
vt 0.625000 0.000000
vt 0.625000 0.250000
vt 0.625000 0.500000
vt 0.875000 0.750000
vt 0.875000 0.627416
vn 0.0000 0.0000 1.0000
vn 1.0000 0.0000 0.0000
vn 0.0000 0.0000 -1.0000
vn 0.0000 -1.0000 0.0000
vn -1.0000 0.0000 0.0000
vn 0.0000 0.8839 0.4677
vn 0.0000 1.0000 0.0000
usemtl None
s off
f 97/183/89 100/184/89 103/185/89 102/186/89
f 100/184/90 98/187/90 99/188/90 104/189/90 103/185/90
f 98/187/91 95/190/91 96/191/91 99/188/91
f 97/192/92 95/193/92 98/187/92 100/184/92
f 95/194/93 97/183/93 102/186/93 101/195/93 96/196/93
f 101/197/94 102/186/94 103/185/94 104/198/94
f 104/189/95 99/188/95 96/199/95 101/200/95
